{"title":"Silver Surfer - The Animated Series 1998 DVDrip XviD","uid":12149453,"size":4288614934,"categoryP":"video","categoryS":"tv_shows","magnet":"?xt=urn:btih:1d2dc4ccbdd729e9ad2372d74a3ee3dc41c45d21&amp;dn=Silver+Surfer+-+The+Animated+Series+1998+DVDrip+XviD&amp;tr=udp%3A%2F%2Ftracker.openbittorrent.com%3A80&amp;tr=udp%3A%2F%2Fopen.demonii.com%3A1337&amp;tr=udp%3A%2F%2Ftracker.coppersurfer.tk%3A6969&amp;tr=udp%3A%2F%2Fexodus.desync.com%3A6969","seeders":2,"leechers":4,"uploader":"TerminatorFan","files":13,"time":1437572057,"description":"All 13 episodes. (High Quality)\n\n---------------\n* General *\n---------------\n\nFormat : AVI\nFormat/Info : Audio Video Interleave\nFile size : 309 MiB\nDuration : 19mn 56s\nOverall bit rate : 2 165 Kbps\nMovie name : Silver Surfer (1998) 1x01: The Origin of the Silver Surfer #1. DVDRip x264 [gd]\nWriting application : Lavf55.43.100\n\n-------------\n* Video *\n-------------\n\nID : 0\nFormat : xvid\nCodec ID : xvid\nDuration : 19mn 56s\nBit rate : 2 056 Kbps\nWidth : 720 pixels\nHeight : 576 pixels\nDisplay aspect ratio : 4:3\nFrame rate : 25.000 fps\nStandard : PAL\nBits/(Pixel*Frame) : 0.198\nStream size : 293 MiB (95%)\n\n-------------\n* Audio *\n-------------\n\nID : 1\nFormat : MPEG Audio\nFormat version : Version 1\nFormat profile : Layer 3\nMode : Joint stereo\nMode extension : MS Stereo\nCodec ID : 55\nCodec ID/Hint : MP3\nDuration : 19mn 54s\nBit rate mode : Constant\nBit rate : 96.0 Kbps\nChannel(s) : 2 channels\nSampling rate : 48.0 KHz\nCompression mode : Lossy\nStream size : 13.7 MiB (4%)\nAlignment : Aligned on interleaves\nInterleave, duration : 24 ms (0.60 video frame)\nInterleave, preload duration : 24 ms\nWriting library : LAME3.99.5\n\n\nThanks goes to the original encoders/providers, gd and DJDEDO.\n\n\nEnjoy &amp; Please Seed!","torrent":{"xt":"urn:btih:1d2dc4ccbdd729e9ad2372d74a3ee3dc41c45d21","amp;dn":"Silver+Surfer+-+The+Animated+Series+1998+DVDrip+XviD","amp;tr":["udp%3A%2F%2Ftracker.openbittorrent.com%3A80","udp%3A%2F%2Fopen.demonii.com%3A1337","udp%3A%2F%2Ftracker.coppersurfer.tk%3A6969","udp%3A%2F%2Fexodus.desync.com%3A6969"],"infoHash":"1d2dc4ccbdd729e9ad2372d74a3ee3dc41c45d21","infoHashBuffer":{"type":"Buffer","data":[29,45,196,204,189,215,41,233,173,35,114,215,74,62,227,220,65,196,93,33]},"announce":[],"urlList":[]}}